<?xml version="1.0" standalone="no"?>
<!DOCTYPE svg PUBLIC "-//W3C//DTD SVG 20010904//EN"
 "http://www.w3.org/TR/2001/REC-SVG-20010904/DTD/svg10.dtd">
<svg version="1.0" xmlns="http://www.w3.org/2000/svg"
 width="700.000000pt" height="700.000000pt" viewBox="0 0 700.000000 700.000000"
 preserveAspectRatio="xMidYMid meet">
<metadata>
Created by potrace 1.14, written by Peter Selinger 2001-2017
</metadata>
<g transform="translate(0.000000,700.000000) scale(0.100000,-0.100000)"
fill="#000000" stroke="none">
<path d="M465 6993 c-205 -45 -364 -182 -437 -376 l-23 -62 -2 -3025 c-1
-2015 1 -3043 8 -3080 15 -80 81 -207 139 -268 64 -67 153 -124 238 -154 l67
-23 1940 0 c1874 0 1942 1 1995 19 49 17 247 96 325 131 17 7 224 93 460 190
237 97 444 182 460 190 26 11 648 268 940 388 236 97 340 196 401 382 21 62
23 327 24 2634 0 1854 -3 2552 -11 2600 -38 219 -213 400 -434 447 -48 11
-637 13 -3065 12 -1653 0 -3014 -2 -3025 -5z m6068 -413 c20 -13 46 -42 57
-62 l21 -38 -2 -2513 c-1 -1381 -4 -2519 -6 -2527 -4 -13 -138 -15 -1156 -15
-645 1 -1171 -3 -1196 -8 -60 -13 -123 -75 -137 -137 -5 -26 -9 -219 -9 -467
l1 -423 -1794 0 c-1635 0 -1796 1 -1824 16 -18 9 -40 26 -50 38 -50 56 -47
-129 -48 3052 0 3287 -6 3014 65 3071 19 15 45 31 57 35 13 3 1364 5 3004 5
l2980 -2 37 -25z m-723 -5547 c0 -4 -69 -33 -845 -352 -176 -73 -333 -138
-350 -146 -54 -24 -107 -45 -114 -45 -5 0 -7 543 -2 546 5 2 1311 0 1311 -3z"/>
<path d="M991 6051 c-62 -33 -60 -15 -61 -598 0 -392 3 -539 12 -558 35 -78
207 -86 261 -13 19 25 20 43 20 368 0 266 3 338 12 328 7 -7 79 -92 161 -188
82 -96 153 -180 159 -186 5 -6 55 -64 110 -130 147 -174 186 -215 222 -230 66
-28 156 -12 198 36 19 21 20 37 21 567 0 521 -1 546 -19 569 -30 39 -73 56
-135 53 -63 -3 -114 -29 -132 -67 -6 -15 -10 -146 -10 -358 l0 -336 -36 44
c-20 23 -58 68 -84 98 -26 30 -121 141 -210 245 -89 105 -172 201 -183 215
-12 14 -40 47 -61 73 -22 27 -57 57 -77 68 -48 24 -123 24 -168 0z"/>
<path d="M2345 6055 c-17 -7 -39 -23 -50 -35 -19 -21 -20 -38 -21 -567 l-1
-545 24 -29 c42 -49 70 -53 421 -52 362 0 383 4 418 69 17 31 17 35 2 67 -31
64 -61 71 -331 71 l-237 1 2 155 3 155 235 0 c204 1 240 4 272 19 45 22 56 34
64 72 4 21 0 37 -17 58 -41 51 -67 56 -324 56 l-236 0 3 157 3 156 240 2 c270
1 291 6 323 71 15 31 15 38 2 61 -8 14 -28 35 -43 47 -27 20 -40 21 -375 23
-272 1 -354 -1 -377 -12z"/>
<path d="M3284 6050 c-39 -20 -64 -53 -64 -86 0 -13 234 -641 261 -699 5 -11
38 -99 75 -195 36 -96 73 -183 82 -194 43 -47 127 -60 201 -30 50 20 49 18
189 389 61 160 114 299 118 309 8 21 6 26 150 -354 122 -321 121 -318 165
-341 70 -35 179 -19 213 33 14 22 371 951 404 1051 14 45 14 49 -5 75 -55 75
-195 83 -256 15 -9 -11 -73 -167 -140 -346 -68 -180 -126 -330 -130 -333 -3
-3 -10 9 -16 28 -5 18 -46 128 -91 243 -44 116 -88 230 -97 255 -8 25 -28 73
-44 108 -35 78 -71 97 -163 89 -106 -10 -96 8 -276 -470 -54 -143 -100 -255
-103 -250 -7 10 -95 241 -132 343 -60 166 -125 323 -141 341 -37 41 -136 50
-200 19z"/>
<path d="M5395 6050 c-147 -38 -244 -100 -305 -193 -60 -93 -65 -171 -15 -273
66 -134 245 -226 463 -237 182 -10 285 -117 213 -222 -67 -99 -228 -117 -362
-41 -80 45 -164 40 -218 -15 -52 -52 -38 -97 47 -150 68 -43 95 -54 185 -74
151 -34 307 -17 452 52 171 80 255 259 189 403 -60 131 -238 233 -427 245
-121 8 -181 24 -223 58 -70 58 -77 132 -18 191 75 75 211 87 322 29 77 -40
121 -49 178 -33 50 14 94 58 94 95 0 60 -120 135 -271 171 -64 15 -236 12
-304 -6z"/>
<path d="M860 4207 c-53 -25 -80 -50 -103 -97 -53 -106 4 -240 114 -270 24 -7
920 -9 2651 -8 l2615 3 40 28 c115 80 115 244 0 324 l-40 28 -2626 2 c-1986 1
-2632 -1 -2651 -10z"/>
<path d="M860 3202 c-85 -29 -138 -132 -118 -228 13 -60 76 -126 134 -140 58
-14 5231 -11 5265 4 96 39 146 149 112 247 -18 50 -66 101 -112 117 -55 19
-5224 19 -5281 0z"/>
<path d="M842 2189 c-73 -36 -115 -115 -106 -198 8 -65 68 -138 133 -160 25
-8 717 -11 2635 -11 2554 1 2602 1 2644 20 54 24 71 41 98 97 42 89 4 203 -85
250 l-44 23 -2616 0 -2616 0 -43 -21z"/>
<path d="M864 1194 c-40 -14 -89 -56 -109 -94 -48 -92 -7 -213 88 -262 l42
-21 1326 0 1327 0 48 24 c64 32 106 97 106 166 0 58 -11 88 -48 132 -59 70 43
65 -1422 66 -1028 1 -1330 -1 -1358 -11z"/>
</g>
</svg>
