<svg version="1.0" xmlns="http://www.w3.org/2000/svg" width="933.333" height="933.333" viewBox="0 0 700 700"><path d="M46.5.7C26 5.2 10.1 18.9 2.8 38.3L.5 44.5.3 347c-.1 201.5.1 304.3.8 308 1.5 8 8.1 20.7 13.9 26.8 6.4 6.7 15.3 12.4 23.8 15.4l6.7 2.3h194c187.4 0 194.2-.1 199.5-1.9 4.9-1.7 24.7-9.6 32.5-13.1 1.7-.7 22.4-9.3 46-19 23.7-9.7 44.4-18.2 46-19 2.6-1.1 64.8-26.8 94-38.8 23.6-9.7 34-19.6 40.1-38.2 2.1-6.2 2.3-32.7 2.4-263.4 0-185.4-.3-255.2-1.1-260-3.8-21.9-21.3-40-43.4-44.7C650.7.3 591.8.1 349 .2 183.7.2 47.6.4 46.5.7zM653.3 42c2 1.3 4.6 4.2 5.7 6.2l2.1 3.8-.2 251.3c-.1 138.1-.4 251.9-.6 252.7-.4 1.3-13.8 1.5-115.6 1.5-64.5-.1-117.1.3-119.6.8-6 1.3-12.3 7.5-13.7 13.7-.5 2.6-.9 21.9-.9 46.7l.1 42.3H231.2c-163.5 0-179.6-.1-182.4-1.6-1.8-.9-4-2.6-5-3.8-5-5.6-4.7 12.9-4.8-305.2C39 21.7 38.4 49 45.5 43.3c1.9-1.5 4.5-3.1 5.7-3.5 1.3-.3 136.4-.5 300.4-.5l298 .2 3.7 2.5zM581 596.7c0 .4-6.9 3.3-84.5 35.2-17.6 7.3-33.3 13.8-35 14.6-5.4 2.4-10.7 4.5-11.4 4.5-.5 0-.7-54.3-.2-54.6.5-.2 131.1 0 131.1.3z"/><path d="M99.1 94.9c-6.2 3.3-6 1.5-6.1 59.8 0 39.2.3 53.9 1.2 55.8 3.5 7.8 20.7 8.6 26.1 1.3 1.9-2.5 2-4.3 2-36.8 0-26.6.3-33.8 1.2-32.8.7.7 7.9 9.2 16.1 18.8 8.2 9.6 15.3 18 15.9 18.6.5.6 5.5 6.4 11 13 14.7 17.4 18.6 21.5 22.2 23 6.6 2.8 15.6 1.2 19.8-3.6 1.9-2.1 2-3.7 2.1-56.7 0-52.1-.1-54.6-1.9-56.9-3-3.9-7.3-5.6-13.5-5.3-6.3.3-11.4 2.9-13.2 6.7-.6 1.5-1 14.6-1 35.8v33.6l-3.6-4.4c-2-2.3-5.8-6.8-8.4-9.8-2.6-3-12.1-14.1-21-24.5-8.9-10.5-17.2-20.1-18.3-21.5-1.2-1.4-4-4.7-6.1-7.3-2.2-2.7-5.7-5.7-7.7-6.8-4.8-2.4-12.3-2.4-16.8 0zM234.5 94.5c-1.7.7-3.9 2.3-5 3.5-1.9 2.1-2 3.8-2.1 56.7l-.1 54.5 2.4 2.9c4.2 4.9 7 5.3 42.1 5.2 36.2 0 38.3-.4 41.8-6.9 1.7-3.1 1.7-3.5.2-6.7-3.1-6.4-6.1-7.1-33.1-7.1l-23.7-.1.2-15.5.3-15.5H281c20.4-.1 24-.4 27.2-1.9 4.5-2.2 5.6-3.4 6.4-7.2.4-2.1 0-3.7-1.7-5.8-4.1-5.1-6.7-5.6-32.4-5.6h-23.6l.3-15.7.3-15.6 24-.2c27-.1 29.1-.6 32.3-7.1 1.5-3.1 1.5-3.8.2-6.1-.8-1.4-2.8-3.5-4.3-4.7-2.7-2-4-2.1-37.5-2.3-27.2-.1-35.4.1-37.7 1.2zM328.4 95c-3.9 2-6.4 5.3-6.4 8.6 0 1.3 23.4 64.1 26.1 69.9.5 1.1 3.8 9.9 7.5 19.5 3.6 9.6 7.3 18.3 8.2 19.4 4.3 4.7 12.7 6 20.1 3 5-2 4.9-1.8 18.9-38.9 6.1-16 11.4-29.9 11.8-30.9.8-2.1.6-2.6 15 35.4 12.2 32.1 12.1 31.8 16.5 34.1 7 3.5 17.9 1.9 21.3-3.3 1.4-2.2 37.1-95.1 40.4-105.1 1.4-4.5 1.4-4.9-.5-7.5-5.5-7.5-19.5-8.3-25.6-1.5-.9 1.1-7.3 16.7-14 34.6-6.8 18-12.6 33-13 33.3-.3.3-1-.9-1.6-2.8-.5-1.8-4.6-12.8-9.1-24.3-4.4-11.6-8.8-23-9.7-25.5-.8-2.5-2.8-7.3-4.4-10.8-3.5-7.8-7.1-9.7-16.3-8.9-10.6 1-9.6-.8-27.6 47-5.4 14.3-10 25.5-10.3 25-.7-1-9.5-24.1-13.2-34.3-6-16.6-12.5-32.3-14.1-34.1-3.7-4.1-13.6-5-20-1.9zM539.5 95c-14.7 3.8-24.4 10-30.5 19.3-6 9.3-6.5 17.1-1.5 27.3 6.6 13.4 24.5 22.6 46.3 23.7 18.2 1 28.5 11.7 21.3 22.2-6.7 9.9-22.8 11.7-36.2 4.1-8-4.5-16.4-4-21.8 1.5-5.2 5.2-3.8 9.7 4.7 15 6.8 4.3 9.5 5.4 18.5 7.4 15.1 3.4 30.7 1.7 45.2-5.2 17.1-8 25.5-25.9 18.9-40.3-6-13.1-23.8-23.3-42.7-24.5-12.1-.8-18.1-2.4-22.3-5.8-7-5.8-7.7-13.2-1.8-19.1 7.5-7.5 21.1-8.7 32.2-2.9 7.7 4 12.1 4.9 17.8 3.3 5-1.4 9.4-5.8 9.4-9.5 0-6-12-13.5-27.1-17.1-6.4-1.5-23.6-1.2-30.4.6zM86 279.3c-5.3 2.5-8 5-10.3 9.7-5.3 10.6.4 24 11.4 27 2.4.7 92 .9 265.1.8l261.5-.3 4-2.8c11.5-8 11.5-24.4 0-32.4l-4-2.8-262.6-.2c-198.6-.1-263.2.1-265.1 1zM86 379.8c-8.5 2.9-13.8 13.2-11.8 22.8 1.3 6 7.6 12.6 13.4 14 5.8 1.4 523.1 1.1 526.5-.4 9.6-3.9 14.6-14.9 11.2-24.7-1.8-5-6.6-10.1-11.2-11.7-5.5-1.9-522.4-1.9-528.1 0zM84.2 481.1c-7.3 3.6-11.5 11.5-10.6 19.8.8 6.5 6.8 13.8 13.3 16 2.5.8 71.7 1.1 263.5 1.1 255.4-.1 260.2-.1 264.4-2 5.4-2.4 7.1-4.1 9.8-9.7 4.2-8.9.4-20.3-8.5-25l-4.4-2.3H88.5l-4.3 2.1zM86.4 580.6c-4 1.4-8.9 5.6-10.9 9.4-4.8 9.2-.7 21.3 8.8 26.2l4.2 2.1H353.8l4.8-2.4c6.4-3.2 10.6-9.7 10.6-16.6 0-5.8-1.1-8.8-4.8-13.2-5.9-7 4.3-6.5-142.2-6.6-102.8-.1-133 .1-135.8 1.1z"/></svg>