<svg xmlns="http://www.w3.org/2000/svg" aria-hidden="true" style="width:0;height:0;position:absolute;overflow:hidden"><defs><symbol id="icon-right-arrow" viewBox="0 0 32 32"><path d="m16.229 16-3.773-3.771 1.887-1.887L20 15.999l-5.657 5.657-1.885-1.887 3.772-3.771z"/></symbol><symbol id="icon-search" viewBox="0 0 32 32"><path d="M13.333 23.6c2.368 0 4.666-.752 6.53-2.138l5.862 5.568 1.885-1.792-5.862-5.568a9.7 9.7 0 0 0 2.253-6.201v-.002c0-5.587-4.784-10.134-10.667-10.134-5.882 0-10.666 4.547-10.666 10.134S7.452 23.6 13.334 23.6zm0-17.733c4.413 0 8 3.408 8 7.6s-3.587 7.6-8 7.6c-4.411 0-8-3.408-8-7.6s3.589-7.6 8-7.6z"/></symbol><symbol id="icon-calendar" viewBox="0 0 32 32"><path fill="#4440f7" d="M22.667 4H28c.736 0 1.333.597 1.333 1.333v21.334c0 .736-.597 1.333-1.333 1.333H4a1.333 1.333 0 0 1-1.333-1.333V5.333C2.667 4.597 3.264 4 4 4h5.333V1.333H12V4h8V1.333h2.667V4zm4 10.667H5.333v10.666h21.334V14.667zm-6.667-8h-8v2.666H9.333V6.667h-4V12h21.334V6.667h-4v2.666H20V6.667zM8 17.333h2.667V20H8v-2.667zm6.667 0h2.666V20h-2.666v-2.667zm6.666 0H24V20h-2.667v-2.667z" style="fill:var(--color1,#4440f7)"/></symbol><symbol id="icon-bottom-arrow" viewBox="0 0 32 32"><path fill="#4440f6" d="M3.76 9.143 0 12.622l16 14.807 16-14.807-3.76-3.479L16 20.446 3.76 9.143z" style="fill:var(--color2,#4440f6)"/></symbol><symbol id="icon-up-arrow" viewBox="0 0 32 32"><path fill="#4440f6" d="M3.76 25.143 0 21.664 16 6.857l16 14.807-3.76 3.479L16 13.84 3.76 25.143z" style="fill:var(--color2,#4440f6)"/></symbol><symbol id="icon-heart" viewBox="0 0 32 32"><path fill="none" stroke="#4440f7" stroke-linecap="round" stroke-linejoin="round" stroke-width="2" d="M9.334 4c-3.682 0-6.668 2.954-6.668 6.6 0 2.942 1.168 9.926 12.652 16.986a1.31 1.31 0 0 0 1.37-.003l-.006.003c11.484-7.06 12.652-14.044 12.652-16.986 0-3.646-2.986-6.6-6.668-6.6C18.986 4 16 8 16 8s-2.986-4-6.666-4z" style="stroke:var(--color1,#4440f7)"/></symbol><symbol id="icon-filled-heart" viewBox="0 0 32 32"><path fill="#4b48da" d="M9.334 4c-3.682 0-6.668 2.954-6.668 6.6 0 2.942 1.168 9.926 12.652 16.986a1.31 1.31 0 0 0 1.37-.003l-.006.003c11.484-7.06 12.652-14.044 12.652-16.986 0-3.646-2.986-6.6-6.668-6.6C18.986 4 16 8 16 8s-2.986-4-6.666-4z" style="fill:var(--color3,#4b48da)"/></symbol><symbol id="icon-icon-for-menu-1" viewBox="0 0 32 32"><path fill="#4440f6" d="M32 16c0 8.837-7.163 16-16 16S0 24.837 0 16 7.163 0 16 0s16 7.163 16 16z" style="fill:var(--color2,#4440f6)"/><path fill="none" stroke="#f4f4f4" stroke-linecap="round" stroke-linejoin="round" d="M9.25 13.75 16 8.5l6.75 5.25V22a1.5 1.5 0 0 1-1.5 1.5v0h-10.5a1.5 1.5 0 0 1-1.5-1.5v0-8.25z" style="stroke:var(--color4,#f4f4f4)"/><path fill="none" stroke="#f4f4f4" stroke-linecap="round" stroke-linejoin="round" d="M13.75 23.5V16h4.5v7.5" style="stroke:var(--color4,#f4f4f4)"/></symbol><symbol id="icon-icon-for-menu-2" viewBox="0 0 32 32"><path fill="#4440f6" d="M32 16c0 8.837-7.163 16-16 16S0 24.837 0 16 7.163 0 16 0s16 7.163 16 16z" style="fill:var(--color2,#4440f6)"/><path fill="none" stroke="#f4f4f4" stroke-linecap="round" stroke-linejoin="round" d="M22.63 10.457c-.747-.747-1.778-1.208-2.918-1.208s-2.171.462-2.918 1.208l-.795.795-.795-.795a4.126 4.126 0 0 0-5.835 5.835l6.63 6.63 6.63-6.63c.747-.747 1.208-1.778 1.208-2.918s-.462-2.171-1.208-2.918v0z" style="stroke:var(--color4,#f4f4f4)"/></symbol><symbol id="icon-icon-for-menu-3" viewBox="0 0 32 32"><path fill="#4440f6" d="M32 16c0 8.837-7.163 16-16 16S0 24.837 0 16 7.163 0 16 0s16 7.163 16 16z" style="fill:var(--color2,#4440f6)"/><path fill="none" stroke="#f4f4f4" stroke-linecap="round" stroke-linejoin="round" d="M8.5 9.25H13a3 3 0 0 1 3 3v10.5a2.25 2.25 0 0 0-2.25-2.25v0H8.5V9.25zm15 0H19a3 3 0 0 0-3 3v10.5a2.25 2.25 0 0 1 2.25-2.25v0h5.25V9.25z" style="stroke:var(--color4,#f4f4f4)"/></symbol><symbol id="icon-sun" viewBox="0 0 32 32"><path fill="none" stroke="#4b48db" stroke-linecap="round" stroke-linejoin="round" stroke-width="2.286" d="M16 1.778v2.586m0 23.272v2.586M5.943 5.943l1.836 1.836m16.445 16.445 1.836 1.836M1.778 16h2.586m23.272 0h2.586M5.943 26.059l1.836-1.836M24.222 7.778l1.836-1.836M22.466 16a6.465 6.465 0 0 1-12.93 0v0a6.465 6.465 0 0 1 12.93 0v0z" style="stroke:var(--color5,#4b48db)"/></symbol><symbol id="icon-moon" viewBox="0 0 32 32"><path fill="none" stroke="#5f6775" stroke-linecap="round" stroke-linejoin="round" stroke-width="2.286" d="M28 17.053c-.584 6.134-5.71 10.893-11.947 10.893-6.627 0-11.998-5.372-11.998-11.998 0-6.237 4.759-11.363 10.845-11.944L14.948 4a9.264 9.264 0 0 0-1.827 5.546 9.333 9.333 0 0 0 14.904 7.489l-.025.018z" style="stroke:var(--color6,#5f6775)"/></symbol><symbol id="icon-location" viewBox="0 0 32 32"><path fill="#fff" d="M16 2.001C9.928 2.008 5.008 6.928 5 12.999v.018c0 2.486.833 4.777 2.236 6.61l-.019-.026s.3.395.348.45L16 30.001l8.439-9.953c.044-.053.345-.447.345-.447l.001-.004a10.811 10.811 0 0 0 2.216-6.583V13v.001c-.007-6.072-4.928-10.993-11-11H16zM16 17a4 4 0 0 1 0-8 4 4 0 0 1 0 8z" style="fill:var(--color7,#fff)"/></symbol><symbol id="icon-left-arrow" viewBox="0 0 32 32"><path d="m13.321 16 11.314 11.314-3.232 3.232L6.857 16 21.403 1.454l3.232 3.232L13.321 16z"/></symbol><symbol id="icon-cursor-pointer" viewBox="0 0 32 32"><path d="M21.758 11.985c.307-.1.613-.136.919-.109a2.33 2.33 0 0 1 1.556.792c.202.231.353.5.453.806l1.438 4.418c.219.644.346 1.385.346 2.156a6.861 6.861 0 0 1-.784 3.196l.018-.038c-.43.82-.98 1.515-1.637 2.093l-.008.007a6.88 6.88 0 0 1-2.355 1.354l-.049.014a7.74 7.74 0 0 1-2.512.41 8.03 8.03 0 0 1-.81-.041l.033.003a9.088 9.088 0 0 1-3.234-.974l.051.024-7.197-3.661a2.44 2.44 0 0 1-1.19-1.387l-.005-.017a2.26 2.26 0 0 1-.107-.968l-.001.01c.033-.317.118-.615.255-.898.137-.282.326-.521.568-.718s.52-.356.837-.476a2.315 2.315 0 0 1 1.855.157l-.012-.006 1.628.819-1.257-3.865a5.35 5.35 0 0 1-1.516-.422l.034.014a5.285 5.285 0 0 1-1.284-.799l.008.006a6.01 6.01 0 0 1-1.012-1.099l-.012-.018a4.789 4.789 0 0 1-.67-1.348l-.009-.034a5.147 5.147 0 0 1-.247-2.154l-.002.021a5.602 5.602 0 0 1 .584-2.036l-.015.032a5.256 5.256 0 0 1 1.267-1.63l.007-.006a5.55 5.55 0 0 1 1.843-1.047l.039-.011a5.134 5.134 0 0 1 1.659-.269c.167 0 .332.008.494.023l-.021-.002a5.62 5.62 0 0 1 2.037.582l-.032-.015a5.256 5.256 0 0 1 1.63 1.267l.006.007a5.584 5.584 0 0 1 1.057 1.883c.168.5.265 1.076.265 1.675 0 .961-.25 1.863-.688 2.646l.014-.027a2.158 2.158 0 0 1 .851.113l-.015-.005c.268.092.521.23.76.415a2.342 2.342 0 0 1 2.158-.72l-.014-.002c.386.068.733.235 1.039.501a2.31 2.31 0 0 1 .988-.64zM7.566 10.903a3.83 3.83 0 0 0 .927 1.518c.43.437.932.754 1.504.948l-.959-2.942a2.317 2.317 0 0 1 .14-1.788l-.006.013a2.334 2.334 0 0 1 2.074-1.268c.699 0 1.326.308 1.754.796l.002.003c.202.23.353.5.453.806l.958 2.945a3.82 3.82 0 0 0 .659-1.652 3.815 3.815 0 0 0-.152-1.8l.008.027a3.807 3.807 0 0 0-1.902-2.226l-.022-.01c-.416-.21-.9-.357-1.412-.411l-.019-.002c-.51-.054-1.018 0-1.524.165s-.951.416-1.333.753a3.918 3.918 0 0 0-1.326 2.59l-.001.015a3.764 3.764 0 0 0 .177 1.521zm15.648 3.049a.75.75 0 0 0-.383-.445l-.004-.002a.73.73 0 0 0-.593-.048l.005-.002c-.261.085-.418.217-.47.394a1.201 1.201 0 0 0-.008.601c.046.222.12.46.22.716.101.256.177.489.229.702.052.212.051.416-.005.612-.055.196-.215.328-.481.398-.283.092-.504.066-.661-.077-.157-.145-.293-.354-.409-.631a4.33 4.33 0 0 1-.261-.864l-.005-.029a4.557 4.557 0 0 0-.276-.924l.011.03c-.116-.276-.247-.483-.393-.622-.147-.138-.372-.167-.676-.085-.261.085-.418.217-.47.394-.052.179-.055.379-.008.601s.12.461.221.716c.1.256.175.49.227.702.053.212.052.416-.003.612-.056.196-.216.329-.481.398-.284.093-.505.066-.661-.077-.158-.145-.294-.354-.41-.63a4.34 4.34 0 0 1-.261-.865l-.005-.029a4.612 4.612 0 0 0-.276-.923l.011.03c-.115-.277-.247-.484-.392-.622-.148-.139-.374-.167-.677-.086-.261.085-.417.217-.47.394a1.225 1.225 0 0 0-.008.601c.047.222.121.461.221.717.1.255.175.489.228.702.052.212.051.415-.004.611s-.216.329-.481.398a.742.742 0 0 1-.592-.051l.004.002a.752.752 0 0 1-.386-.442l-.001-.005-2.398-7.361a.748.748 0 0 0-.383-.444l-.004-.002a.733.733 0 0 0-.594-.049l.005-.002a.748.748 0 0 0-.444.383l-.002.004a.733.733 0 0 0-.049.594l-.002-.005 2.946 9.053a1.296 1.296 0 0 1-.071 1.008l.003-.007c-.074.16-.181.293-.313.395l-.002.002a2.126 2.126 0 0 1-.45.261 1.36 1.36 0 0 1-1.036-.075l.008.004-2.119-1.079a.811.811 0 0 0-.66-.053l.006-.002a.828.828 0 0 0-.493.424l-.002.005a.867.867 0 0 0-.06.676l-.002-.006c.07.22.224.395.423.493l.005.002 7.201 3.675a7.294 7.294 0 0 0 2.595.783c.877.088 1.772-.013 2.688-.302a5.255 5.255 0 0 0 1.876-1.059l-.006.005a5.469 5.469 0 0 0 1.845-3.608l.002-.022a5.416 5.416 0 0 0-.253-2.186l.011.038-1.437-4.418z"/></symbol><symbol id="icon-menu" viewBox="0 0 32 32"><path d="M6.4 11.734V9.6h19.2v2.134H6.4zm0 5.332h19.2v-2.133H6.4v2.133zm0 5.334h19.2v-2.134H6.4V22.4z"/></symbol><symbol id="icon-close-menu" viewBox="0 0 32 32"><path d="M23.734 10.304 22.23 8.8l-5.963 5.962L10.305 8.8l-1.504 1.504 5.962 5.962-5.962 5.963 1.504 1.504 5.962-5.963 5.963 5.963 1.504-1.504-5.963-5.963 5.963-5.962z"/></symbol><symbol id="icon-loading" viewBox="0 0 32 32"><path stroke-linecap="round" stroke-linejoin="round" stroke-width="2" d="M16.001 2.667v2.666m6.667-.88-1.333 2.31m6.213 2.57-2.31 1.334M29.336 16h-2.667m.88 6.667-2.31-1.334m-2.57 6.214-1.333-2.31M16 29.333v-2.666m-6.666.88 1.333-2.31m-6.213-2.57 2.309-1.334M2.668 16h2.667m-.88-6.667 2.309 1.334m2.57-6.214 1.334 2.31"/></symbol><symbol id="icon-mob-menu-arrow" viewBox="0 0 18 32"><path fill="none" stroke="#f4f4f4" style="stroke:var(--color1,#f4f4f4)" stroke-linejoin="round" stroke-linecap="round" stroke-width="4.571" d="M2.286 29.714 16 16 2.286 2.286"/></symbol><symbol id="icon-ua-flag" viewBox="0 0 30 20"><path fill="#005bbb" d="M1 1h28v9H1z"/><path fill="#ffd500" d="M1 10h28v9H1z"/></symbol></defs></svg>